<svg width="2301" height="420" viewBox="0 0 2301 420" fill="none" xmlns="http://www.w3.org/2000/svg">
<path d="M646.63 148.535L609.865 267H584.065L560.2 179.495L536.335 267H510.535L473.555 148.535H498.495L523.22 243.78L548.375 148.535H573.96L598.04 243.35L622.55 148.535H646.63ZM716.332 268.935C705.152 268.935 695.047 266.427 686.017 261.41C676.987 256.25 669.892 249.083 664.732 239.91C659.572 230.593 656.992 219.843 656.992 207.66C656.992 195.62 659.644 184.942 664.947 175.625C670.251 166.308 677.489 159.142 686.662 154.125C695.836 149.108 706.084 146.6 717.407 146.6C728.731 146.6 738.979 149.108 748.152 154.125C757.326 159.142 764.564 166.308 769.867 175.625C775.171 184.942 777.822 195.62 777.822 207.66C777.822 219.7 775.099 230.378 769.652 239.695C764.206 249.012 756.752 256.25 747.292 261.41C737.976 266.427 727.656 268.935 716.332 268.935ZM716.332 247.65C722.639 247.65 728.516 246.145 733.962 243.135C739.552 240.125 744.067 235.61 747.507 229.59C750.947 223.57 752.667 216.26 752.667 207.66C752.667 199.06 751.019 191.822 747.722 185.945C744.426 179.925 740.054 175.41 734.607 172.4C729.161 169.39 723.284 167.885 716.977 167.885C710.671 167.885 704.794 169.39 699.347 172.4C694.044 175.41 689.816 179.925 686.662 185.945C683.509 191.822 681.932 199.06 681.932 207.66C681.932 220.417 685.157 230.307 691.607 237.33C698.201 244.21 706.442 247.65 716.332 247.65ZM826.562 165.735C830.145 159.715 834.875 155.057 840.752 151.76C846.772 148.32 853.867 146.6 862.037 146.6V171.97H855.802C846.198 171.97 838.888 174.407 833.872 179.28C828.998 184.153 826.562 192.61 826.562 204.65V267H802.052V148.535H826.562V165.735ZM931.436 207.875L986.046 267H952.936L909.076 216.045V267H884.566V107.9H909.076V200.35L952.076 148.535H986.046L931.436 207.875Z" fill="#0070F2"/>
<path d="M1037.83 165.305V234.75C1037.83 240.483 1039.04 244.568 1041.48 247.005C1043.92 249.298 1048.15 250.445 1054.17 250.445H1068.57V267H1050.94C1040.05 267 1031.88 264.492 1026.43 259.475C1020.98 254.458 1018.26 246.217 1018.26 234.75V165.305H1003V149.18H1018.26V119.51H1037.83V149.18H1068.57V165.305H1037.83ZM1199.78 203.575C1199.78 207.302 1199.56 211.243 1199.13 215.4H1104.96C1105.68 227.01 1109.62 236.112 1116.79 242.705C1124.1 249.155 1132.91 252.38 1143.23 252.38C1151.69 252.38 1158.71 250.445 1164.3 246.575C1170.03 242.562 1174.05 237.258 1176.34 230.665H1197.41C1194.26 241.988 1187.95 251.233 1178.49 258.4C1169.03 265.423 1157.28 268.935 1143.23 268.935C1132.05 268.935 1122.02 266.427 1113.13 261.41C1104.39 256.393 1097.51 249.298 1092.49 240.125C1087.47 230.808 1084.97 220.058 1084.97 207.875C1084.97 195.692 1087.4 185.013 1092.28 175.84C1097.15 166.667 1103.96 159.643 1112.7 154.77C1121.59 149.753 1131.76 147.245 1143.23 147.245C1154.41 147.245 1164.3 149.682 1172.9 154.555C1181.5 159.428 1188.09 166.165 1192.68 174.765C1197.41 183.222 1199.78 192.825 1199.78 203.575ZM1179.57 199.49C1179.57 192.037 1177.92 185.658 1174.62 180.355C1171.32 174.908 1166.81 170.823 1161.08 168.1C1155.49 165.233 1149.25 163.8 1142.37 163.8C1132.48 163.8 1124.02 166.953 1117 173.26C1110.12 179.567 1106.18 188.31 1105.18 199.49H1179.57ZM1218.29 207.875C1218.29 195.692 1220.73 185.085 1225.6 176.055C1230.47 166.882 1237.21 159.787 1245.81 154.77C1254.55 149.753 1264.52 147.245 1275.7 147.245C1290.17 147.245 1302.07 150.757 1311.39 157.78C1320.85 164.803 1327.08 174.55 1330.09 187.02H1309.02C1307.01 179.853 1303.07 174.192 1297.2 170.035C1291.46 165.878 1284.3 163.8 1275.7 163.8C1264.52 163.8 1255.49 167.67 1248.61 175.41C1241.73 183.007 1238.29 193.828 1238.29 207.875C1238.29 222.065 1241.73 233.03 1248.61 240.77C1255.49 248.51 1264.52 252.38 1275.7 252.38C1284.3 252.38 1291.46 250.373 1297.2 246.36C1302.93 242.347 1306.87 236.613 1309.02 229.16H1330.09C1326.94 241.2 1320.63 250.875 1311.17 258.185C1301.71 265.352 1289.89 268.935 1275.7 268.935C1264.52 268.935 1254.55 266.427 1245.81 261.41C1237.21 256.393 1230.47 249.298 1225.6 240.125C1220.73 230.952 1218.29 220.202 1218.29 207.875ZM1414.68 147.03C1423.56 147.03 1431.59 148.965 1438.76 152.835C1445.92 156.562 1451.51 162.223 1455.53 169.82C1459.68 177.417 1461.76 186.662 1461.76 197.555V267H1442.41V200.35C1442.41 188.597 1439.47 179.638 1433.6 173.475C1427.72 167.168 1419.69 164.015 1409.52 164.015C1399.2 164.015 1390.95 167.24 1384.79 173.69C1378.77 180.14 1375.76 189.528 1375.76 201.855V267H1356.2V107.9H1375.76V165.95C1379.63 159.93 1384.93 155.272 1391.67 151.975C1398.55 148.678 1406.22 147.03 1414.68 147.03ZM1551.13 147.03C1565.46 147.03 1577.07 151.402 1585.96 160.145C1594.84 168.745 1599.29 181.215 1599.29 197.555V267H1579.94V200.35C1579.94 188.597 1577 179.638 1571.12 173.475C1565.24 167.168 1557.22 164.015 1547.04 164.015C1536.72 164.015 1528.48 167.24 1522.32 173.69C1516.3 180.14 1513.29 189.528 1513.29 201.855V267H1493.72V149.18H1513.29V165.95C1517.16 159.93 1522.39 155.272 1528.98 151.975C1535.72 148.678 1543.1 147.03 1551.13 147.03ZM1641.35 130.045C1637.62 130.045 1634.47 128.755 1631.89 126.175C1629.31 123.595 1628.02 120.442 1628.02 116.715C1628.02 112.988 1629.31 109.835 1631.89 107.255C1634.47 104.675 1637.62 103.385 1641.35 103.385C1644.93 103.385 1647.94 104.675 1650.38 107.255C1652.96 109.835 1654.25 112.988 1654.25 116.715C1654.25 120.442 1652.96 123.595 1650.38 126.175C1647.94 128.755 1644.93 130.045 1641.35 130.045ZM1650.81 149.18V267H1631.25V149.18H1650.81ZM1676.85 207.66C1676.85 195.62 1679.28 185.085 1684.16 176.055C1689.03 166.882 1695.69 159.787 1704.15 154.77C1712.75 149.753 1722.35 147.245 1732.96 147.245C1743.14 147.245 1752.02 149.538 1759.62 154.125C1767.36 158.568 1773.02 164.087 1776.61 170.68V149.18H1796.39V322.9H1776.61V245.285C1772.88 251.878 1767.15 257.468 1759.41 262.055C1751.67 266.642 1742.64 268.935 1732.32 268.935C1722 268.935 1712.61 266.355 1704.15 261.195C1695.69 256.035 1689.03 248.797 1684.16 239.48C1679.28 230.163 1676.85 219.557 1676.85 207.66ZM1776.61 207.875C1776.61 198.988 1774.81 191.248 1771.23 184.655C1767.65 178.062 1762.77 173.045 1756.61 169.605C1750.59 166.022 1743.93 164.23 1736.62 164.23C1729.31 164.23 1722.64 165.95 1716.62 169.39C1710.6 172.83 1705.8 177.847 1702.22 184.44C1698.63 191.033 1696.84 198.773 1696.84 207.66C1696.84 216.69 1698.63 224.573 1702.22 231.31C1705.8 237.903 1710.6 242.992 1716.62 246.575C1722.64 250.015 1729.31 251.735 1736.62 251.735C1743.93 251.735 1750.59 250.015 1756.61 246.575C1762.77 242.992 1767.65 237.903 1771.23 231.31C1774.81 224.573 1776.61 216.762 1776.61 207.875ZM1933.94 149.18V267H1914.37V249.585C1910.65 255.605 1905.42 260.335 1898.68 263.775C1892.09 267.072 1884.78 268.72 1876.75 268.72C1867.58 268.72 1859.33 266.857 1852.02 263.13C1844.71 259.26 1838.91 253.527 1834.61 245.93C1830.45 238.333 1828.37 229.088 1828.37 218.195V149.18H1847.72V215.615C1847.72 227.225 1850.66 236.183 1856.54 242.49C1862.42 248.653 1870.44 251.735 1880.62 251.735C1891.08 251.735 1899.32 248.51 1905.34 242.06C1911.36 235.61 1914.37 226.222 1914.37 213.895V149.18H1933.94ZM2074.47 203.575C2074.47 207.302 2074.26 211.243 2073.83 215.4H1979.66C1980.37 227.01 1984.32 236.112 1991.48 242.705C1998.79 249.155 2007.61 252.38 2017.93 252.38C2026.38 252.38 2033.41 250.445 2039 246.575C2044.73 242.562 2048.74 237.258 2051.04 230.665H2072.11C2068.95 241.988 2062.65 251.233 2053.19 258.4C2043.73 265.423 2031.97 268.935 2017.93 268.935C2006.75 268.935 1996.71 266.427 1987.83 261.41C1979.08 256.393 1972.2 249.298 1967.19 240.125C1962.17 230.808 1959.66 220.058 1959.66 207.875C1959.66 195.692 1962.1 185.013 1966.97 175.84C1971.85 166.667 1978.65 159.643 1987.4 154.77C1996.28 149.753 2006.46 147.245 2017.93 147.245C2029.11 147.245 2039 149.682 2047.6 154.555C2056.2 159.428 2062.79 166.165 2067.38 174.765C2072.11 183.222 2074.47 192.825 2074.47 203.575ZM2054.26 199.49C2054.26 192.037 2052.61 185.658 2049.32 180.355C2046.02 174.908 2041.51 170.823 2035.77 168.1C2030.18 165.233 2023.95 163.8 2017.07 163.8C2007.18 163.8 1998.72 166.953 1991.7 173.26C1984.82 179.567 1980.88 188.31 1979.87 199.49H2054.26ZM2142.01 268.935C2132.98 268.935 2124.88 267.43 2117.71 264.42C2110.55 261.267 2104.88 256.967 2100.73 251.52C2096.57 245.93 2094.28 239.552 2093.85 232.385H2114.06C2114.63 238.262 2117.35 243.063 2122.23 246.79C2127.24 250.517 2133.77 252.38 2141.79 252.38C2149.25 252.38 2155.12 250.732 2159.42 247.435C2163.72 244.138 2165.87 239.982 2165.87 234.965C2165.87 229.805 2163.58 226.007 2158.99 223.57C2154.41 220.99 2147.31 218.482 2137.71 216.045C2128.96 213.752 2121.8 211.458 2116.21 209.165C2110.76 206.728 2106.03 203.217 2102.02 198.63C2098.15 193.9 2096.21 187.737 2096.21 180.14C2096.21 174.12 2098 168.602 2101.59 163.585C2105.17 158.568 2110.26 154.627 2116.85 151.76C2123.45 148.75 2130.97 147.245 2139.43 147.245C2152.47 147.245 2163.01 150.542 2171.03 157.135C2179.06 163.728 2183.36 172.758 2183.93 184.225H2164.37C2163.94 178.062 2161.43 173.117 2156.84 169.39C2152.4 165.663 2146.38 163.8 2138.78 163.8C2131.76 163.8 2126.17 165.305 2122.01 168.315C2117.86 171.325 2115.78 175.267 2115.78 180.14C2115.78 184.01 2117 187.235 2119.43 189.815C2122.01 192.252 2125.17 194.258 2128.89 195.835C2132.76 197.268 2138.07 198.917 2144.8 200.78C2153.26 203.073 2160.14 205.367 2165.44 207.66C2170.75 209.81 2175.26 213.107 2178.99 217.55C2182.86 221.993 2184.86 227.798 2185.01 234.965C2185.01 241.415 2183.22 247.22 2179.63 252.38C2176.05 257.54 2170.96 261.625 2164.37 264.635C2157.92 267.502 2150.46 268.935 2142.01 268.935Z" fill="#F86734"/>
<path d="M166.948 30H60.9035C57.3879 30 54.0163 31.4588 51.5304 34.0554C49.0445 36.6521 47.648 40.1739 47.648 43.8462V154.616" stroke="#0070F2" stroke-width="35" stroke-linecap="round" stroke-linejoin="round"/>
<path d="M392.292 154.616V43.8462C392.292 40.1739 390.896 36.6521 388.41 34.0554C385.925 31.4588 382.554 30 379.039 30H272.993" stroke="#0070F2" stroke-width="35" stroke-linecap="round" stroke-linejoin="round"/>
<path d="M272.993 390H379.039C382.554 390 385.925 388.542 388.41 385.945C390.896 383.349 392.292 379.828 392.292 376.156V265.385" stroke="#0070F2" stroke-width="35" stroke-linecap="round" stroke-linejoin="round"/>
<path d="M47.648 265.385V376.156C47.648 379.828 49.0445 383.349 51.5304 385.945C54.0163 388.542 57.3879 390 60.9035 390H166.948" stroke="#0070F2" stroke-width="35" stroke-linecap="round" stroke-linejoin="round"/>
<path d="M321.654 118.967V301.035" stroke="#0070F2" stroke-width="35" stroke-linecap="round" stroke-linejoin="round"/>
<path d="M114.89 118.967V301.035" stroke="#0070F2" stroke-width="35" stroke-linecap="round" stroke-linejoin="round"/>
<path d="M269.964 118.967V238.967" stroke="#0070F2" stroke-width="35" stroke-linecap="round" stroke-linejoin="round"/>
<path d="M270 301V291" stroke="#F86734" stroke-width="35" stroke-linecap="round" stroke-linejoin="round"/>
<path d="M218.272 118.967V238.967" stroke="#0070F2" stroke-width="35" stroke-linecap="round" stroke-linejoin="round"/>
<path d="M218 301V291" stroke="#F86734" stroke-width="35" stroke-linecap="round" stroke-linejoin="round"/>
<path d="M167 119V239" stroke="#0070F2" stroke-width="35" stroke-linecap="round" stroke-linejoin="round"/>
<path d="M165 301V291" stroke="#F86734" stroke-width="35" stroke-linecap="round" stroke-linejoin="round"/>
<path d="M2211.77 71.18V75.62H2200.37V113H2194.91V75.62H2183.45V71.18H2211.77ZM2260.91 71.48V113H2255.45V82.04L2241.65 113H2237.81L2223.95 81.98V113H2218.49V71.48H2224.37L2239.73 105.8L2255.09 71.48H2260.91Z" fill="#0070F2"/>
</svg>
